<?xml version="1.0" encoding="UTF-8" standalone="no"?>
<!-- Created with Inkscape (http://www.inkscape.org/) -->
<svg xmlns:rdf="http://www.w3.org/1999/02/22-rdf-syntax-ns#" xmlns="http://www.w3.org/2000/svg" height="46" width="140" version="1.1" xmlns:cc="http://creativecommons.org/ns#" xmlns:dc="http://purl.org/dc/elements/1.1/" id="svglogo">
 <g id="logogroup">
 <g fill="#ff6600" transform="matrix(0.19061949,0,0,0.19061949,0,-76)">
  <path id="path10" fill-rule="evenodd" d="m133.18,622.99-7.69,6.4c2.12,2.16,4.59,3.39,7.04,3.86,2.76,0.53,5.33,0.44,7.66,0.04,5.67-0.94,10.74-3.14,15.31-5.76,4.61-2.6,8.97-5.74,12.59-9.53,1.43-1.49,2.77-3.14,3.76-4.96,0.74-1.36,1.3-2.91,1.15-4.41-0.14,1.5-0.95,2.79-1.86,3.93-1.25,1.53-2.77,2.78-4.37,3.93-4.06,2.9-8.61,4.97-13.29,6.56-4.68,1.56-9.42,2.63-13.88,2.45-1.79-0.09-3.41-0.32-4.62-0.91-0.94-0.49-1.67-1.05-1.8-1.6z"/>
  <path id="path12" fill-rule="evenodd" d="m168.5,438.63c0.27-0.12,0.74,0.23,1.43,0.96s1.62,1.83,2.86,3.22c1.24,1.38,2.81,3.03,4.71,4.99,1.89,1.95,4.13,4.2,6.47,6.99,1.06,1.38,1.77,2.79,2.33,4.01s0.96,2.23,1.51,2.73c1.94,2.34,4.38,4.74,6.92,7.7,2.29,2.6,4.74,5.79,6.35,10.05,2.61,7.13,5.62,14.92,8.15,23.58,1.26,4.29,2.43,8.86,3.16,13.72,0.62,3.51,0.98,7.68-0.04,12.27-0.43,1.73-0.89,3.47-1.38,5.21-3.54,12.46-8.59,23.99-14.55,33.86s-12.83,18.08-19.67,24.46c-2.3,2.11-4.46,4.37-6.65,6.46-2.79,2.68-5.58,5.08-8.36,6.97-1.62,1.13-3.3,2.09-4.94,2.8s-3.25,1.19-4.76,1.44c-1.72,0.28-3.24,0.21-4.52-0.02-1.27-0.23-2.29-0.62-3.07-1.01-0.77-0.39-1.3-0.8-1.61-1.13s-0.42-0.59-0.34-0.76c0.09-0.16,0.35-0.23,0.78-0.23,0.42-0.01,1.01,0.04,1.75,0.07,0.74,0.02,1.63,0.03,2.65-0.08,1.02-0.12,2.16-0.35,3.33-0.82,1.11-0.42,2.26-1.02,3.46-1.83,1.2-0.8,2.45-1.8,3.76-2.95,2.18-1.96,4.41-4.41,6.84-7.22,1.86-2.18,3.83-4.63,6.19-7.18,5.92-6.38,11.83-14.3,17.04-23.68,5.2-9.37,9.69-20.2,13.04-31.89,0.47-1.64,0.91-3.27,1.32-4.9,0.68-2.24,0.29-5.17-0.06-8.44-0.56-4.23-1.55-8.41-2.63-12.56-2.15-8.23-4.8-16.04-7.04-23.43-0.69-2.65-2.51-5.21-4.38-7.83-2.05-2.8-4.37-5.53-6.35-8.42-1.12-1.73-1.67-3.27-2.08-4.51-0.41-1.23-0.67-2.17-1.08-2.75-1.84-2.79-3.73-5.33-5.29-7.65-1.57-2.32-2.82-4.41-3.7-6.19-0.88-1.77-1.39-3.23-1.62-4.26-0.23-1.02-0.19-1.62,0.07-1.75z"/>
  <path id="path14" fill-rule="evenodd" d="m161.44,601.13,0.13,10c1.26-0.76,2.79-1.5,4.36-1.31,1.47-0.02,3.25,1.26,4.07,3.31,0.83-2.05,0.71-4.86-1.13-7.31-1.77-2.28-4.53-3.98-7.43-4.69z"/>
  <path id="path16" fill-rule="evenodd" d="m225.29,530.3c-0.27-0.08-0.39-0.65-0.34-1.7,0.05-1.04,0.27-2.55,0.73-4.47,0.46-1.93,1.16-4.27,2.24-6.92,1.07-2.66,2.52-5.63,4.55-8.76,1.49-2.3,3.31-4.66,5.55-6.93s4.9-4.45,8.03-6.31c4.67-2.74,10.33-4.65,16.53-5.04,5.55-0.33,11.39,0.52,17.01,2.58,5.51,2.03,10.79,5.12,15.52,9.12,4.74,4.01,8.92,8.94,12.23,14.52,1.48,2.48,2.78,5.08,3.89,7.77,2.29,5.52,3.73,11.23,4.43,16.9,0.69,5.67,0.64,11.29-0.04,16.66-0.73,6-2.06,11.83-4,17.2-1.93,5.37-4.46,10.28-7.48,14.56-2.7,3.77-5.74,6.93-8.86,9.56-3.11,2.63-6.31,4.73-9.4,6.39-3.25,1.73-6.29,2.97-9.01,3.99-2.73,1.01-5.14,1.81-7.21,2.49-1.08,0.37-2.03,0.67-2.86,0.97-0.82,0.3-1.52,0.6-2.11,0.91-0.61,0.33-1.07,0.61-1.41,0.9-0.34,0.28-0.57,0.58-0.75,0.8-0.18,0.23-0.32,0.37-0.47,0.37s-0.31-0.15-0.41-0.5c-0.09-0.35-0.12-0.91,0.14-1.6,0.25-0.63,0.71-1.35,1.34-1.99,0.57-0.59,1.29-1.2,2.12-1.79,0.83-0.58,1.79-1.15,2.78-1.71,1.92-1.1,4.18-2.3,6.66-3.65,2.47-1.35,5.18-2.84,7.87-4.7,2.58-1.76,5.22-3.87,7.74-6.36,2.53-2.5,4.93-5.38,6.98-8.68,2.38-3.76,4.32-8.07,5.78-12.83s2.45-9.97,3.02-15.42c0.45-4.63,0.4-9.47-0.25-14.31-0.64-4.85-1.89-9.7-3.81-14.33-0.94-2.27-2.03-4.44-3.25-6.51-2.78-4.66-6.21-8.83-10.04-12.24s-8.06-6.06-12.46-7.82c-4.45-1.79-9.03-2.7-13.36-2.64-4.79,0.04-9.35,1.24-13.21,3.13-2.62,1.27-4.95,2.88-7.01,4.62s-3.85,3.61-5.41,5.45c-2.13,2.54-3.81,5.04-5.21,7.31-1.39,2.27-2.49,4.3-3.39,5.97s-1.6,2.98-2.16,3.84-0.96,1.28-1.23,1.2z"/>
  <path id="path18" fill-rule="evenodd" d="m287.86,598.31c0.13,0.12,0.18,0.3,0.27,0.52,0.04,0.11,0.1,0.23,0.14,0.41s0.07,0.41,0.01,0.74c-0.1,0.87-0.52,2.03-1.37,3.13-1.2,1.6-3.11,3.39-5.7,4.99-1.29,0.81-2.75,1.57-4.3,2.28-1.56,0.71-3.23,1.37-4.9,2.01-4.89,1.94-10.84,3.32-17.4,3.57-5.46,0.22-11.27-0.29-17.15-1.41-3.96-0.77-7.95-1.78-11.93-2.96-6.63-1.98-12.79-4.24-18.5-6.27-4.39-1.54-8.44-2.94-12.22-3.88-1.78-0.42-3.45-0.78-5.01-0.99-1.57-0.22-3.02-0.28-4.37-0.16-1.35,0.1-2.65,0.4-3.8,0.85-1.15,0.44-2.15,1.04-2.99,1.72-1.25,0.97-2.22,2.13-3.04,3.24-0.81,1.1-1.46,2.16-2.02,3.03-1.12,1.74-1.87,2.75-2.4,2.61-0.26-0.06-0.45-0.4-0.56-1.01s-0.13-1.49-0.01-2.61c0.13-1.13,0.4-2.52,0.97-4.09,0.57-1.58,1.43-3.36,2.84-5.18,1.08-1.33,2.45-2.58,4.1-3.61,1.66-1.03,3.59-1.85,5.74-2.31,1.95-0.4,3.98-0.58,6.05-0.56,2.06,0.01,4.15,0.23,6.2,0.58,4.41,0.7,8.95,1.92,13.49,3.29,5.94,1.79,12.09,3.88,18.38,5.77,3.78,1.13,7.46,2.12,11.04,2.9,5.33,1.16,10.41,1.88,15.14,2.02,5.64,0.18,10.8-0.42,15.2-1.49,1.78-0.48,3.45-0.87,4.96-1.24,1.52-0.38,2.89-0.74,4.11-1.13,2.44-0.77,4.27-1.66,5.66-2.52,0.84-0.49,1.45-0.94,1.88-1.35,0.11-0.09,0.24-0.26,0.39-0.42,0.14-0.16,0.3-0.31,0.44-0.41,0.29-0.19,0.52-0.18,0.66-0.06z"/>
  <path id="path20" fill-rule="evenodd" d="m293.71,543.15c-0.25,0.11-0.61-0.11-1.11-0.54-0.5-0.42-1.15-1.06-2.05-1.77-0.9-0.72-2.06-1.5-3.54-2.26-1.48-0.75-3.28-1.47-5.3-2.09-2.5-0.72-5.38-1.17-8.59-1.19-3.21-0.03-6.76,0.39-10.43,1.27-4.88,1.22-9.97,3.43-14.43,6.92-3.8,2.94-7.22,6.86-10.29,11.39-2.2,3.25-4.18,6.82-6.08,10.61-0.65,1.31-1.28,2.63-1.91,3.96-2.47,5.28-4.72,10.63-7.06,15.78-2.34,5.18-4.84,10.25-7.76,14.81-1.42,2.26-3.01,4.41-4.75,6.35s-3.65,3.68-5.69,5.14c-2.17,1.54-4.5,2.7-6.82,3.46-2.77,0.91-5.45,1.25-7.89,1.24-3.19-0.03-5.92-0.55-8.23-1.19-2.3-0.65-4.17-1.44-5.64-2.17-1.47-0.74-2.53-1.43-3.2-1.99-0.68-0.56-0.97-0.99-0.86-1.26s0.61-0.38,1.47-0.35c0.86,0.02,2.07,0.18,3.6,0.39,1.53,0.2,3.38,0.46,5.49,0.6,2.1,0.14,4.46,0.17,6.96-0.24,1.89-0.29,3.86-0.81,5.73-1.69,1.58-0.74,3.15-1.75,4.62-3.01,1.41-1.19,2.73-2.64,3.98-4.31,1.26-1.66,2.44-3.55,3.6-5.57,2.34-4.16,4.39-8.92,6.54-14.06,2.12-5.1,4.28-10.55,6.86-16.14,0.64-1.4,1.31-2.8,2.01-4.21,2.04-4.09,4.31-8.05,6.88-11.75,3.61-5.19,7.97-9.79,12.89-13.3,5.89-4.16,12.34-6.49,18.37-7.45,4.43-0.74,8.73-0.78,12.57-0.26,3.85,0.52,7.26,1.59,10.1,2.94,2.32,1.05,4.3,2.39,5.82,3.76s2.58,2.76,3.27,3.97,1.02,2.24,1.12,2.96c0.1,0.73-0.01,1.15-0.25,1.25z"/>
  <path id="path22" fill-rule="evenodd" d="m116.22,614.22c-0.45,0.07-0.92-0.04-1.37-0.37-0.46-0.33-0.89-0.89-1.23-1.66-0.33-0.78-0.56-1.78-0.6-2.92s0.13-2.43,0.55-3.73c0.41-1.32,1.03-2.67,1.87-3.97,0.84-1.29,1.89-2.53,3.13-3.61,0.08-0.07,0.17-0.15,0.25-0.22,1.27-1.1,2.68-2,4.11-2.65,1.44-0.66,2.9-1.08,4.27-1.28,1.27-0.22,2.51-0.19,3.58,0.01,1.08,0.2,1.99,0.57,2.68,1,0.68,0.44,1.14,0.94,1.38,1.42s0.26,0.94,0.12,1.36-0.43,0.77-0.78,1.09c-0.35,0.33-0.77,0.63-1.22,0.94-0.45,0.32-0.94,0.66-1.46,1.02-0.53,0.37-1.09,0.77-1.7,1.16-1.36,0.94-2.83,2.11-4.44,3.5-0.05,0.04-0.11,0.09-0.16,0.14-1.52,1.37-2.83,2.65-3.9,3.87-1,1.16-1.91,2.21-2.69,3.09-0.39,0.45-0.76,0.85-1.14,1.17-0.39,0.33-0.8,0.57-1.25,0.64z"/>
  <path id="path24" fill-rule="evenodd" d="m134.63,604.6c-0.23,0.07-0.54-0.13-0.93-0.62-0.39-0.48-0.85-1.25-1.32-2.31-0.46-1.06-0.94-2.42-1.29-4.09-0.36-1.67-0.59-3.65-0.48-5.94,0.22-3.46,1.35-7.43,3.58-11.25,1.89-3.26,4.41-6.43,7.07-9.5,2.6-3.02,5.39-6.08,7.96-9.38,6.22-7.95,13.03-16.82,19.09-26.77,0.92-1.53,1.83-3.09,2.72-4.67,3.91-7,7.01-14.01,8.95-20.9,1.33-4.71,2.13-9.39,2.47-13.86,0.34-4.48,0.24-8.75-0.18-12.7-0.5-4.81-1.44-9.16-2.46-13-1.01-3.84-2.11-7.15-3.02-9.89-0.92-2.74-1.66-4.9-2.07-6.44-0.41-1.53-0.49-2.44-0.14-2.64s1.11,0.32,2.19,1.52c1.09,1.2,2.5,3.08,4.08,5.64,1.58,2.57,3.33,5.81,4.98,9.75,1.65,3.93,3.2,8.55,4.26,13.85,0.87,4.39,1.35,9.21,1.26,14.31-0.08,5.09-0.74,10.47-2.09,15.92-1.96,7.87-5.25,15.76-9.49,23.33-0.96,1.71-1.95,3.38-2.96,5-3.28,5.28-6.77,10.17-10.28,14.7-3.52,4.53-7.06,8.71-10.47,12.56-3.08,3.49-6.17,6.43-8.96,9.14-2.84,2.8-5.33,5.28-7.19,7.77-1.06,1.41-1.93,2.83-2.62,4.21-0.68,1.39-1.17,2.74-1.49,4.03-0.45,1.73-0.62,3.37-0.69,4.84s-0.04,2.77-0.02,3.84c0.04,2.15,0,3.4-0.46,3.55z"/>
  <path id="path26" fill-rule="evenodd" d="m120.11,614.57c-1.75-1.48-3.95-2.66-6.44-2.58-2.37,0.11-4.59,1.33-6.34,2.88-2.01,1.7-3.83,3.82-4.95,6.48-0.85,2.07-1.13,4.43-0.68,6.78,0.99,4.48,4.22,8.18,8.15,10.27,3.93,2.28,8.89,3.25,13.9,1.88,2.53-0.74,4.87-2.19,6.73-4.24,2.15-2.48,3.5-5.39,4.11-8.27l-9.87-1.65c-0.14,1.67-0.44,3.24-1.17,4.36-0.53,0.93-1.44,1.76-2.5,2.31-2.25,1.25-5.55,1.12-8.58,0.09-2.87-1.12-5.65-3.09-6.62-5.87-0.54-1.37-0.62-3.02-0.27-4.6,0.46-2.12,1.72-4.16,3.27-6.02,1.34-1.54,2.97-2.93,4.94-3.31,2.06-0.44,4.36,0.31,6.32,1.49z"/>
  <path id="path28" fill-rule="evenodd" d="m100.31,637.55c2.85-2.07,6.18-2.42,8.3-1.26l-3.16-9.49c-3.77,3.11-5.29,7.23-5.14,10.75z"/>
  <path id="path30" fill-rule="evenodd" d="m34.005,425.13c-0.014-0.23,0.318-0.5,1.008-0.72,0.689-0.22,1.739-0.39,3.118-0.38,1.379,0.02,3.088,0.24,5.027,0.76,1.94,0.53,4.111,1.38,6.328,2.5,4.154,2.04,8.87,5.07,13.529,9.33,2.202,2.01,4.721,3.98,7.507,6,2.785,2.03,5.839,4.1,9.035,6.4,2.79,1.97,5.686,4.15,8.539,6.64,2.853,2.5,5.664,5.32,8.234,8.61,6.02,7.78,11.8,16.49,17.18,25.81,0.13,0.22,0.26,0.45,0.39,0.67,6.55,11.41,11.97,22.88,15.99,33.84,2.38,6.44,4.28,12.75,5.63,18.76,1.34,6,2.11,11.7,2.39,16.91,0.34,6.36-0.16,12.02-1.14,16.6-1.03,4.83-2.6,8.44-3.94,10.71-0.67,1.14-1.28,1.96-1.77,2.47-0.48,0.5-0.84,0.7-1.06,0.59-0.42-0.21-0.17-1.59,0.3-4.03,0.47-2.43,1.13-5.95,1.37-10.43,0.23-4.27,0.03-9.4-0.83-15.21-0.7-4.79-1.83-10-3.45-15.53-1.61-5.53-3.72-11.39-6.2-17.47-4.22-10.32-9.62-21.2-15.96-32.23-0.13-0.21-0.25-0.43-0.38-0.65-5.211-9.02-10.633-17.46-16.17-25.08-1.963-2.75-4.282-5.22-6.739-7.54-2.458-2.31-5.053-4.46-7.615-6.54-2.98-2.39-5.951-4.7-8.722-7.06-2.772-2.36-5.345-4.75-7.609-7.22-3.813-4.21-7.681-7.45-11.131-9.87-1.901-1.29-3.634-2.39-5.176-3.23-1.542-0.83-2.892-1.42-4.02-1.83-1.127-0.42-2.032-0.68-2.663-0.91-0.63-0.23-0.986-0.43-1-0.67z"/>
  <path id="path32" fill-rule="evenodd" d="m46.005,429.63c0.383-0.23,1.313,0.52,2.819,2.01,0.753,0.75,1.655,1.68,2.712,2.78,1.057,1.11,2.27,2.39,3.613,3.87,1.206,1.32,2.531,2.79,3.928,4.45,1.398,1.67,2.868,3.52,4.317,5.66,3.217,4.73,6.813,10.21,10.516,16.43,3.704,6.22,7.513,13.18,10.986,20.92,1.534,3.49,2.701,7.16,3.59,10.9s1.501,7.57,1.968,11.37c0.261,2.06,0.639,4.18,1.072,6.36,0.969,4.87,2.162,9.88,2.868,15.06,0.804,5.94,1.423,11.64,2.111,17.04,0.689,5.39,1.45,10.48,2.42,15.21,1.295,6.29,3.005,11.99,4.955,16.91,1.96,4.91,4.16,9.05,6.28,12.42,0.79,1.24,1.48,2.35,2.15,3.31s1.31,1.77,1.97,2.43c0.68,0.72,1.42,1.28,2.11,1.72,0.69,0.43,1.33,0.75,1.87,1.01,1.08,0.51,1.74,0.8,1.74,1.14,0,0.18-0.16,0.35-0.51,0.5-0.34,0.15-0.86,0.28-1.57,0.32-0.7,0.05-1.58,0-2.6-0.23-1.03-0.24-2.19-0.66-3.4-1.41-1.04-0.64-2.08-1.46-3.09-2.41-1.02-0.95-2.01-2.04-2.98-3.15-2.86-3.27-5.84-7.49-8.523-12.63s-5.058-11.22-6.833-17.94c-1.327-5-2.392-10.31-3.311-15.83-0.92-5.51-1.695-11.23-2.567-17.02-0.682-4.54-1.881-9.33-2.9-14.51-0.455-2.32-0.863-4.67-1.16-7.07-0.922-7.25-2.061-14-4.442-19.73-3.038-7.45-6.382-14.33-9.587-20.62s-6.27-12-8.911-17.03c-1.049-2.03-2.186-3.91-3.284-5.68-1.099-1.76-2.158-3.41-3.107-4.94-1.043-1.67-1.975-3.21-2.741-4.58s-1.368-2.57-1.801-3.58c-0.864-2.01-1.061-3.23-0.678-3.46z"/>
  <path id="path34" fill-rule="nonzero" d="m327.01,561.49c-0.04-0.16,0.22-0.38,0.74-0.69s1.31-0.7,2.31-1.24c2.01-1.08,4.93-2.74,8.13-5.51,1.39-1.21,2.83-2.62,4.29-4.26s2.95-3.51,4.44-5.58c2.26-3.14,4.51-6.76,6.87-10.81,2.37-4.04,4.85-8.51,7.8-13.2,1.18-1.88,2.25-4.02,3.42-6.32,1.73-3.44,3.46-7.06,5.19-10.85,4.02-8.82,8.06-18.43,11.7-28.81,1.68-4.8,3.27-9.75,4.59-14.85,1.1-4.28,2.05-8.6,2.47-12.94,0.26-3.29,0.42-6.38-0.35-8.92-0.28-0.91-0.57-1.68-0.97-2.16-0.3-0.4-0.69-0.75-1.08-0.91-1-0.48-2.03-0.81-2.98-0.87-0.89-0.09-1.85,0.03-2.8,0.29-2.22,0.54-4.43,2.27-6.68,4.33-5.94,5.62-10.16,13.56-14.28,22-0.92,1.93-1.81,3.89-2.68,5.87-3.2,7.32-5.93,14.77-8.39,22.2-1.31,3.97-2.54,7.92-3.65,11.85-0.78,2.73-1.51,5.39-2.1,8.01-0.77,3.33-1.1,6.91-1.4,10.6-0.4,5.26-0.54,10.48-0.51,15.63,0.04,6.31,0.29,12.46,0.84,18.39,0.55,5.92,1.4,11.63,2.59,17.07,1.17,5.28,2.61,10.22,4.67,14.58,1.83,3.72,3.87,7,6.56,8.96,1.19,0.89,2.49,1.57,3.81,1.93,1.43,0.41,3.01,0.46,4.57,0.27,2.44-0.25,4.77-1.15,7-2.32,2.22-1.17,4.34-2.62,6.35-4.08,3.27-2.46,6.3-4.77,9.02-6.99s5.14-4.35,7.23-6.41c2.39-2.32,4.36-4.56,6.01-6.57,1.64-2.01,2.97-3.8,4.04-5.25,2.14-2.91,3.29-4.5,3.64-4.32,0.18,0.09,0.14,0.61-0.12,1.53-0.27,0.93-0.76,2.26-1.54,3.95s-1.84,3.74-3.27,6.05c-1.44,2.31-3.24,4.89-5.53,7.61-2,2.37-4.34,4.83-6.98,7.35s-5.58,5.1-8.71,7.77c-2.02,1.77-4.32,3.55-6.97,5.08-2.65,1.54-5.65,2.82-9.08,3.49-2.33,0.43-4.84,0.44-7.39-0.12-2.32-0.53-4.52-1.52-6.47-2.89-4.14-2.97-7.19-7.14-9.35-11.5-2.58-5.04-4.41-10.55-5.8-16.18-1.43-5.79-2.5-11.83-3.23-18.07-0.73-6.23-1.13-12.66-1.27-19.19-0.13-5.36-0.07-10.85,0.29-16.45,0.23-3.82,0.58-7.86,1.47-12.03,0.62-2.91,1.37-5.75,2.14-8.55,1.13-4.09,2.37-8.19,3.7-12.29,2.48-7.67,5.31-15.42,8.67-23.11,0.91-2.08,1.85-4.15,2.83-6.19,4.13-8.79,9.13-17.71,16.47-24.8,2.81-2.8,6.44-5.29,10.86-6.61,2.04-0.57,4.19-0.77,6.37-0.56,2.31,0.24,4.47,0.92,6.38,1.91,1.87,0.96,3.41,2.32,4.56,3.95,1.21,1.77,1.97,3.59,2.39,5.32,1.07,4.44,0.93,8.64,0.44,12.36-0.6,5.05-1.73,9.81-3.01,14.32-1.53,5.4-3.31,10.54-5.19,15.45-4.04,10.62-8.51,20.33-12.97,29.14-1.91,3.8-3.84,7.44-5.8,10.91-1.26,2.23-2.56,4.52-4.07,6.69-3.05,4.34-5.77,8.65-8.45,12.6-2.68,3.96-5.32,7.58-7.98,10.71-1.76,2.07-3.54,3.93-5.3,5.54-1.76,1.6-3.5,2.96-5.17,4.08-1.93,1.3-3.77,2.26-5.4,2.96s-3.06,1.15-4.23,1.43c-1.17,0.29-2.08,0.41-2.7,0.43s-0.96-0.06-1-0.21z"/>
  <path id="path36" fill-rule="nonzero" d="m429.87,537.09c0.03,0.27-0.67,0.59-1.88,1.22-0.61,0.32-1.34,0.73-2.14,1.27-0.81,0.55-1.68,1.25-2.53,2.14-0.77,0.79-1.53,1.75-2.24,2.88-0.71,1.14-1.37,2.45-1.95,3.9-0.98,2.44-1.73,5.27-2.13,8.47-0.41,3.19-0.46,6.76-0.18,10.56,0.26,3.01,0.74,6.16,1.57,9.33,0.83,3.16,2.02,6.33,3.73,9.33,1.33,2.29,2.9,4.45,4.85,6.05,1.66,1.36,3.6,2.4,5.58,2.71,4.71,0.82,9.76,0.75,14.4-0.77,4.04-1.27,7.9-3.68,11.25-6.83s6.18-7.12,8.53-11.53c2.35-4.44,4.15-9.34,5.41-14.49,2.25-9.43,2.99-19.58,0.42-28.99-0.01-0.03-0.02-0.06-0.03-0.09-1.07-3.81-2.55-7.33-4.78-9.96-1.96-2.35-4.57-4.15-7.3-4.8-0.38-0.14-1.16-0.14-2.28-0.23-1.61-0.08-3.25-0.08-4.93-0.04-4.38,0.11-8.65,0.51-12.75,1.27-4,0.83-7.6,1.61-10.11,3.37-0.87,0.66-1.55,1.14-1.65,1.54-0.18,0.13-0.16,0.66-0.07,1.18,1.12,4.04,2.84,7.86,5.04,11.13,2.2,3.28,4.88,6.02,7.92,8.02,3.14,2.16,6.66,3.59,10.24,4.47,3.57,0.87,7.2,1.2,10.66,1.11,4.52-0.12,8.78-0.92,12.65-2.1,3.86-1.19,7.33-2.75,10.37-4.45,3.46-1.94,6.37-4.09,8.74-6.14,2.38-2.05,4.23-4.01,5.68-5.67,1.45-1.65,2.49-3,3.25-3.89,0.76-0.9,1.24-1.34,1.46-1.23s0.17,0.76-0.2,1.92c-0.37,1.15-1.06,2.81-2.22,4.83-1.17,2.02-2.81,4.42-5.08,6.96s-5.18,5.23-8.81,7.73c-3.16,2.18-6.88,4.23-11.13,5.87-4.26,1.64-9.06,2.86-14.29,3.32-4.05,0.36-8.37,0.2-12.76-0.68s-8.84-2.49-13.05-5.06c-4.06-2.56-7.65-5.94-10.59-9.97-2.94-4.02-5.23-8.68-6.69-13.67-0.73-2.39-0.62-5.09,0.53-7.72,1.27-2.43,2.99-4.18,4.77-5.29,4.35-2.85,9.13-4.23,13.51-5.02,4.67-0.94,9.45-1.46,14.27-1.63,1.85-0.07,3.75-0.09,5.7-0.01,1.06,0.01,2.48,0.09,4.23,0.49,4.98,1.27,9.37,4.14,12.58,8.04,3.35,4.13,5.5,8.91,6.75,13.71,0.01,0.04,0.02,0.08,0.03,0.12,3.03,11.57,2.22,23.38-0.54,33.95-1.5,5.86-3.67,11.48-6.5,16.66-2.82,5.16-6.39,9.89-10.68,13.79-4.35,3.96-9.5,6.91-14.98,8.5-6.38,1.81-12.81,1.7-18.6,0.42-3.64-0.83-6.77-2.62-9.22-4.89-2.77-2.58-4.76-5.54-6.22-8.5-1.87-3.77-3.07-7.59-3.82-11.29-0.75-3.69-1.05-7.27-1.07-10.62-0.06-4.2,0.35-8.19,1.16-11.76s2.01-6.72,3.44-9.39c0.87-1.61,1.86-3.05,2.9-4.26,1.04-1.22,2.14-2.22,3.22-3.01,1.22-0.89,2.41-1.48,3.48-1.88,1.06-0.4,1.99-0.6,2.74-0.69,1.51-0.19,2.3,0.02,2.34,0.29z"/>
  <path id="path38" fill-rule="nonzero" d="m514.02,514.57c0.16,0.16-0.04,0.69-0.54,1.57-0.51,0.89-1.33,2.14-2.34,3.77s-2.22,3.65-3.45,6.1c-1.23,2.44-2.49,5.3-3.51,8.61-0.81,2.61-1.48,5.51-1.88,8.65-0.39,3.14-0.51,6.52-0.21,10.04,0.45,5.37,1.86,11.11,4.57,16.64,2.26,4.6,5.39,9.07,9.5,12.7,3.56,3.13,7.84,5.7,12.53,6.89,4.44,1.16,9.41,1.07,14.05-0.36,5.45-1.61,10.59-5.18,15.18-9.65,6.09-6,10.98-13.72,15.21-22.15,0.02-0.02,0.09-0.25,0.25-0.66,0.19-0.55,0.38-1.16,0.57-1.8,0.38-1.25,0.73-2.54,1.07-3.85,0.15-0.6,0.3-1.2,0.46-1.81,1.28-5.2,2.36-10.37,3.19-15.5,0.78-5,1.46-9.7,1.21-14.06-0.16-1.53-0.17-2.63-0.49-3.09-0.1-0.06,0.06,0.04,0.42,0.41,0.52,0.36,1,0.52,1.53,0.52,0.44-0.07,0.62-0.08,0.61-0.14-0.08-0.01-0.28,0.24-0.63,0.6-0.99,1.13-1.71,2.84-2.5,4.78-2.16,5.61-3.06,11.68-3.47,17.66-0.4,6.79-0.09,13.22,1.64,18.82,0.79,2.5,1.75,4.76,3.1,6.49,1.21,1.57,2.72,2.82,4.33,3.38,1.79,0.65,3.63,0.92,5.28,0.68,1.66-0.19,3.33-0.92,4.85-1.87,2.03-1.25,3.75-2.93,5.28-4.76,1.54-1.82,2.89-3.79,4.15-5.71,1.72-2.69,3.17-5.31,4.45-7.77,1.29-2.45,2.41-4.74,3.42-6.78,1.3-2.62,2.41-4.87,3.36-6.64,0.91-1.67,1.68-2.95,2.29-3.76s1.04-1.16,1.24-1.06,0.17,0.64-0.03,1.61c-0.21,0.97-0.56,2.36-1.09,4.19-0.54,1.92-1.25,4.31-2.18,7.13-0.72,2.19-1.57,4.64-2.63,7.31-1.05,2.67-2.31,5.57-3.91,8.62-1.12,2.18-2.44,4.48-4.12,6.75s-3.73,4.51-6.33,6.48c-2.09,1.55-4.61,2.8-7.53,3.39-2.96,0.55-6.04,0.33-8.92-0.58-3.2-1.05-6.03-3.03-8.14-5.61-2.2-2.69-3.76-5.77-4.81-8.91-2.32-6.85-3.04-14.37-2.73-21.84,0.22-6.58,1.14-13.57,3.59-20.5,0.8-2.37,1.97-4.98,3.9-7.51,0.69-0.93,1.69-1.91,3.04-2.8,1.16-0.78,2.68-1.27,4.49-1.34,1.56-0.01,3.06,0.49,4.4,1.47,1.26,1.07,2.07,2.16,2.46,3.13,1.1,2.55,1.45,4.87,1.47,6.69,0.32,5.6-0.36,11.03-1.18,16.17-0.84,5.44-1.96,10.9-3.31,16.36-0.16,0.63-0.32,1.27-0.48,1.91-0.37,1.4-0.75,2.81-1.17,4.21-0.22,0.72-0.45,1.46-0.72,2.23-0.14,0.43-0.37,1.04-0.74,1.82-4.5,9.08-10.14,17.68-17.32,24.67-5.43,5.33-12.03,9.57-19.35,11.71-6.39,1.82-13.06,1.74-19.11,0-6.28-1.85-11.64-5.27-15.88-9.36-4.89-4.69-8.4-10.18-10.77-15.71-2.85-6.63-4.09-13.35-4.2-19.51-0.07-4.06,0.35-7.87,1.08-11.35,0.72-3.48,1.76-6.63,2.95-9.42,1.51-3.52,3.23-6.44,4.9-8.85s3.29-4.3,4.69-5.74,2.57-2.44,3.42-3.04c0.85-0.61,1.37-0.83,1.54-0.67z"/>
  <path id="path40" fill-rule="nonzero" d="m618.74,514.57c1.26,0,2.4,11.33,3.28,30.03,0.27,5.46,1.01,11.53,2.51,17.98,0.71,3.36,0.86,6.74,0.81,10.03-0.05,3.3-0.3,6.51-0.25,9.52-0.12-0.36,0.18,0.08,0.42,1.46,0.19,0.3,0.26,1.27,0.05,2.9-0.86,2.36-2.56,3.72-4.95,3.95-2.27-0.24-3.91-1.1-4.78-2.45-0.95-1.42-1.42-2.62-1.53-3.47-0.62-2.77-0.65-5.35-0.55-7.56,0.19-6.86,1.27-13.79,2.65-20.67,1.33-6.75,3.03-13.69,5.32-20.64,0.17-0.5,0.34-1,0.51-1.5,1.02-2.99,2.18-6.01,3.61-8.97,0.9-2.01,2.22-4.36,4.35-6.6,0.58-0.54,1.23-1.43,2.12-2.49,0.95-1.17,2.07-2.46,3.48-3.72,1.33-1.26,3.19-2.39,5.57-3.07,2.82-0.59,5.45-0.18,7.59,0.97,3.86,2.04,7.18,4.57,10.09,7.28,2.9,2.71,5.39,5.62,7.59,8.48,2.57,3.29,4.84,6.54,7,9.6,2.15,3.07,4.18,5.95,6.23,8.58,2.21,2.85,4.4,5.38,6.66,7.48,2.46,2.28,4.98,4.08,7.48,5.31,3.19,1.58,6.42,2.31,9.24,2.59,1.93,0.19,3.69,0.18,5.23,0.12,1.55-0.06,2.88-0.18,3.97-0.27,2.19-0.18,3.42-0.21,3.54,0.17,0.13,0.38-0.84,1.17-2.95,2.1-1.05,0.47-2.39,0.97-4.02,1.41-1.64,0.43-3.57,0.81-5.81,0.96-3.32,0.21-7.28-0.12-11.48-1.63-3.27-1.19-6.57-3.05-9.66-5.5-2.85-2.23-5.55-4.89-8.13-7.8-2.38-2.68-4.69-5.56-7.02-8.53-2.33-2.96-4.68-6.01-7.19-8.96-2.19-2.52-4.49-5.01-6.98-7.24-2.48-2.22-5.15-4.17-8.11-5.55-0.44-0.15-0.86-0.28-0.89-0.15-0.25-0.02-0.72,0.41-1.44,0.97-0.73,0.64-1.47,1.55-2.34,2.62-0.69,0.88-1.55,2.02-2.75,3.26-0.8,0.71-1.46,2.16-2.4,3.95-1.17,2.43-2.16,5.08-3.12,7.87-0.16,0.46-0.32,0.93-0.47,1.39-2.14,6.48-3.79,13.04-5.17,19.5-1.4,6.66-2.56,13.01-2.88,19.06-0.07,2.09-0.19,3.83,0.13,5.14,0.16,0.4,0.07,0.45-0.12,0.05-0.35-0.63-1.17-0.97-2.57-1.2-1.9,0.22-3.14,1.23-3.9,3.12-0.06,0.97-0.13,1.26-0.07,0.91-0.07-0.2-0.39-1.28-0.5-3.23,0.04-3.63,0.45-6.92,0.69-9.91,0.23-2.98,0.31-5.66-0.14-8.08-1.2-7.08-1.49-13.69-1.23-19.54,0.88-18.7,2.03-30.03,3.28-30.03z"/>
 </g>
 </g>
</svg>
